<svg width="23" height="20" viewBox="0 0 23 20" fill="none" xmlns="http://www.w3.org/2000/svg">
<g clip-path="url(#clip0_18_171)">
<path d="M1.68274 17.121L2.66436 18.824C2.86833 19.1827 3.16151 19.4644 3.50573 19.6693C4.49164 18.4122 5.17793 17.4475 5.5646 16.7752C5.95702 16.093 6.4393 15.0259 7.01146 13.5739C5.4694 13.37 4.30085 13.2681 3.50582 13.2681C2.74273 13.2681 1.57412 13.37 0 13.5739C0 13.9709 0.101987 14.3678 0.305961 14.7264L1.68274 17.121Z" fill="#0066DA"/>
<path d="M18.7525 19.6693C19.0968 19.4644 19.39 19.1827 19.5939 18.8241L20.0018 18.1199L21.9524 14.7264C22.1525 14.3756 22.258 13.9783 22.2582 13.5739C20.675 13.37 19.5085 13.2681 18.7589 13.2681C17.9533 13.2681 16.7868 13.37 15.2596 13.5739C15.8249 15.0339 16.3009 16.101 16.6874 16.7752C17.0771 17.4555 17.7655 18.4201 18.7525 19.6693Z" fill="#EA4335"/>
<path d="M11.1291 6.40271C12.2698 5.01884 13.056 3.95173 13.4875 3.2014C13.8351 2.5972 14.2175 1.63252 14.6349 0.307336C14.2906 0.102445 13.8955 0 13.4875 0H8.77072C8.36278 0 7.96769 0.115284 7.62339 0.307336C8.15434 1.82716 8.60483 2.90879 8.97487 3.55223C9.38386 4.26332 10.1019 5.21348 11.1291 6.40271Z" fill="#00832D"/>
<path d="M15.2468 13.5737H7.01147L3.50582 19.6691C3.84995 19.874 4.24512 19.9764 4.65307 19.9764H17.6052C18.0131 19.9764 18.4084 19.8612 18.7525 19.669L15.2468 13.5737Z" fill="#2684FC"/>
<path d="M11.1291 6.4029L7.62347 0.307617C7.27917 0.512508 6.98599 0.794167 6.78201 1.15277L0.305961 12.4215C0.105748 12.7723 0.000276618 13.1696 0 13.574H7.01146L11.1291 6.4029Z" fill="#00AC47"/>
<path d="M18.7143 6.78669L15.4762 1.15228C15.2723 0.793679 14.9791 0.51202 14.6348 0.307129L11.1292 6.4025L15.2468 13.5736H22.2455C22.2455 13.1766 22.1436 12.7797 21.9396 12.4211L18.7143 6.78669Z" fill="#FFBA00"/>
</g>
<defs>
<clipPath id="clip0_18_171">
<rect width="22.2581" height="20" fill="white"/>
</clipPath>
</defs>
</svg>
