<svg width="20" height="20" viewBox="0 0 20 20" fill="none" xmlns="http://www.w3.org/2000/svg">
<g clip-path="url(#clip0_18_193)">
<path fill-rule="evenodd" clip-rule="evenodd" d="M10 0.236328C6.32923 0.236328 3.35236 3.21242 3.35236 6.88398C3.35236 9.82102 5.25704 12.3129 7.89845 13.1918C8.23064 13.2534 8.35267 13.0476 8.35267 12.872C8.35267 12.7135 8.34642 12.1898 8.34361 11.6345C6.49407 12.0365 6.10392 10.8501 6.10392 10.8501C5.80157 10.0816 5.36579 9.87727 5.36579 9.87727C4.76267 9.46477 5.41111 9.4732 5.41111 9.4732C6.07876 9.52008 6.43032 10.1584 6.43032 10.1584C7.02314 11.1746 7.98548 10.8807 8.3647 10.7109C8.42454 10.2812 8.59673 9.98774 8.78689 9.8218C7.31032 9.65383 5.75814 9.08367 5.75814 6.53648C5.75814 5.8107 6.01782 5.21773 6.44314 4.75211C6.37407 4.58461 6.14657 3.90836 6.50751 2.99273C6.50751 2.99273 7.06564 2.8143 8.33564 3.67445C8.86611 3.52711 9.43486 3.4532 9.9997 3.4507C10.5647 3.45336 11.1338 3.52727 11.665 3.67445C12.9338 2.81445 13.4913 2.99289 13.4913 2.99289C13.8531 3.90852 13.6256 4.58461 13.5566 4.75227C13.9828 5.21758 14.2406 5.8107 14.2406 6.53664C14.2406 9.08977 12.6855 9.65195 11.2052 9.81633C11.4436 10.0226 11.6561 10.4273 11.6561 11.0476C11.6561 11.937 11.6486 12.6527 11.6486 12.8716C11.6486 13.0482 11.7683 13.2557 12.1052 13.1904C14.7452 12.3104 16.6474 9.81945 16.6474 6.88336C16.6477 3.21258 13.6714 0.236328 10 0.236328Z" fill="#181616"/>
<path d="M5.87034 9.78061C5.85549 9.81374 5.80346 9.82358 5.75627 9.80093C5.70784 9.77905 5.68096 9.73421 5.69659 9.70093C5.71065 9.66718 5.76284 9.65765 5.81112 9.6803C5.85956 9.70218 5.8869 9.74749 5.87034 9.78061ZM6.13956 10.0812C6.10784 10.1105 6.04581 10.0969 6.00362 10.0503C5.96018 10.0039 5.95206 9.94186 5.98424 9.91218C6.01674 9.8828 6.0769 9.89655 6.12018 9.94296C6.16393 9.98983 6.17252 10.0512 6.1394 10.0811L6.13956 10.0812ZM6.40159 10.4637C6.36096 10.4922 6.29424 10.4656 6.25315 10.4064C6.21221 10.3475 6.21221 10.2767 6.25393 10.2481C6.29518 10.2197 6.36081 10.2453 6.40237 10.3039C6.44331 10.3641 6.44331 10.435 6.40159 10.4637ZM6.76065 10.8337C6.72424 10.8739 6.64659 10.8631 6.58987 10.8083C6.53174 10.7547 6.51565 10.6786 6.55206 10.6384C6.58909 10.5983 6.66706 10.6095 6.72424 10.6639C6.78206 10.7173 6.79956 10.7937 6.76065 10.8337ZM7.25627 11.0484C7.24002 11.1006 7.16534 11.1242 7.09002 11.1022C7.01471 11.0794 6.96565 11.0184 6.98065 10.9659C6.99627 10.9134 7.07159 10.8889 7.14737 10.9125C7.22237 10.935 7.27174 10.9953 7.25627 11.0484ZM7.80002 11.0883C7.80206 11.143 7.73815 11.1886 7.65909 11.1895C7.57971 11.1914 7.51534 11.147 7.5144 11.093C7.5144 11.0376 7.5769 10.9926 7.65627 10.9914C7.73534 10.9898 7.80002 11.0339 7.80002 11.0883ZM8.30627 11.0022C8.31565 11.0556 8.26096 11.1106 8.18237 11.1251C8.10518 11.1395 8.03393 11.1064 8.02393 11.0533C8.01456 10.9986 8.07034 10.9439 8.14737 10.9295C8.22596 10.9158 8.29627 10.9478 8.30627 11.0022Z" fill="#181616"/>
<path d="M3.88358 16.9223H2.21171C2.19099 16.9223 2.17112 16.9305 2.15647 16.9451C2.14181 16.9598 2.13358 16.9797 2.13358 17.0004V17.8179C2.13358 17.8386 2.14181 17.8585 2.15647 17.8731C2.17112 17.8878 2.19099 17.896 2.21171 17.896H2.86374V18.9116C2.86374 18.9116 2.71733 18.9616 2.31218 18.9616C1.83468 18.9616 1.16733 18.7873 1.16733 17.3198C1.16733 15.8521 1.86233 15.6588 2.51483 15.6588C3.07952 15.6588 3.32265 15.7582 3.47765 15.8062C3.52608 15.8209 3.5714 15.7724 3.5714 15.7293L3.7578 14.9395C3.75808 14.9276 3.75549 14.9159 3.75027 14.9053C3.74505 14.8947 3.73734 14.8855 3.7278 14.8785C3.66483 14.8335 3.2814 14.6191 2.31249 14.6191C1.19624 14.6191 0.051239 15.0938 0.051239 17.377C0.051239 19.6598 1.36218 19.9999 2.46686 19.9999C3.38155 19.9999 3.9364 19.609 3.9364 19.609C3.95921 19.5965 3.96171 19.5645 3.96171 19.5496V17.0002C3.96171 16.9795 3.95348 16.9596 3.93883 16.945C3.92417 16.9303 3.9043 16.9223 3.88358 16.9223ZM12.4228 14.8141H11.4812C11.471 14.8142 11.4608 14.8162 11.4513 14.8202C11.4419 14.8242 11.4333 14.83 11.426 14.8373C11.4188 14.8446 11.4131 14.8533 11.4092 14.8628C11.4053 14.8723 11.4034 14.8825 11.4034 14.8927L11.4037 16.7121H9.93624V14.8927C9.9363 14.8825 9.93434 14.8723 9.93047 14.8628C9.9266 14.8533 9.9209 14.8447 9.91369 14.8374C9.90648 14.8301 9.8979 14.8242 9.88844 14.8203C9.87899 14.8163 9.86884 14.8142 9.85858 14.8141H8.91718C8.9069 14.8142 8.89674 14.8162 8.88727 14.8202C8.87779 14.8242 8.8692 14.83 8.86197 14.8373C8.85474 14.8446 8.84902 14.8533 8.84515 14.8628C8.84127 14.8723 8.8393 14.8825 8.83936 14.8927V19.8193C8.83936 19.8626 8.87436 19.8979 8.91718 19.8979H9.85858C9.86886 19.8978 9.87902 19.8957 9.88848 19.8918C9.89795 19.8878 9.90653 19.8819 9.91374 19.8746C9.92096 19.8673 9.92666 19.8586 9.93052 19.8491C9.93438 19.8396 9.93632 19.8294 9.93624 19.8191V17.712H11.4037L11.4012 19.8191C11.4012 19.8626 11.4362 19.8979 11.4794 19.8979H12.4228C12.4331 19.8978 12.4432 19.8957 12.4527 19.8918C12.4622 19.8878 12.4707 19.8819 12.478 19.8746C12.4852 19.8673 12.4909 19.8586 12.4947 19.8491C12.4986 19.8396 12.5005 19.8294 12.5005 19.8191V14.8926C12.5006 14.8823 12.4986 14.8721 12.4948 14.8626C12.4909 14.8531 12.4852 14.8445 12.478 14.8372C12.4708 14.8299 12.4622 14.8241 12.4527 14.8201C12.4432 14.8162 12.4331 14.8141 12.4228 14.8141ZM5.05311 14.9262C4.71811 14.9262 4.44624 15.2001 4.44624 15.5391C4.44624 15.8777 4.71811 16.1524 5.05311 16.1524C5.38843 16.1524 5.66015 15.8777 5.66015 15.5391C5.66015 15.2001 5.38827 14.9262 5.05311 14.9262ZM5.51499 16.4274H4.57655C4.53343 16.4274 4.49499 16.4718 4.49499 16.5149V19.773C4.49499 19.8688 4.55468 19.8973 4.63186 19.8973H5.47718C5.57015 19.8973 5.5928 19.8516 5.5928 19.7715V16.506C5.59284 16.4958 5.59086 16.4856 5.58697 16.4761C5.58309 16.4666 5.57737 16.458 5.57014 16.4507C5.56291 16.4434 5.55433 16.4376 5.54486 16.4336C5.5354 16.4297 5.52525 16.4275 5.51499 16.4274ZM16.0784 16.4348H15.1441C15.1338 16.4348 15.1236 16.4369 15.1142 16.441C15.1048 16.445 15.0962 16.4508 15.089 16.4581C15.0818 16.4654 15.0761 16.4741 15.0723 16.4836C15.0684 16.4931 15.0665 16.5033 15.0666 16.5135V18.9291C15.0666 18.9291 14.8291 19.1026 14.4923 19.1026C14.1556 19.1026 14.0662 18.9499 14.0662 18.6201V16.5135C14.0663 16.5032 14.0644 16.4931 14.0605 16.4835C14.0567 16.474 14.051 16.4653 14.0437 16.458C14.0365 16.4507 14.0279 16.4449 14.0185 16.4409C14.009 16.4369 13.9989 16.4348 13.9886 16.4348H13.0405C13.0302 16.4348 13.02 16.4369 13.0105 16.4409C13.001 16.4448 12.9924 16.4507 12.9852 16.458C12.978 16.4653 12.9723 16.474 12.9684 16.4835C12.9645 16.493 12.9626 16.5032 12.9626 16.5135V18.7795C12.9626 19.7591 13.5087 19.9988 14.2598 19.9988C14.8761 19.9988 15.373 19.6582 15.373 19.6582C15.373 19.6582 15.3964 19.8379 15.4073 19.859C15.4183 19.8802 15.4459 19.9016 15.4761 19.9016L16.0792 19.899C16.0895 19.899 16.0997 19.8969 16.1092 19.893C16.1188 19.889 16.1274 19.8832 16.1347 19.8759C16.1419 19.8686 16.1477 19.8599 16.1516 19.8503C16.1555 19.8408 16.1574 19.8305 16.1573 19.8202L16.1569 16.513C16.1568 16.4923 16.1485 16.4725 16.1339 16.4578C16.1193 16.4431 16.0995 16.4348 16.0787 16.4346L16.0784 16.4348ZM18.6319 16.3241C18.1012 16.3241 17.7403 16.5609 17.7403 16.5609V14.8926C17.7404 14.8823 17.7384 14.8721 17.7345 14.8626C17.7307 14.8531 17.725 14.8445 17.7178 14.8372C17.7105 14.8299 17.702 14.8241 17.6925 14.8201C17.6831 14.8161 17.6729 14.814 17.6626 14.814H16.7187C16.7084 14.814 16.6982 14.816 16.6887 14.82C16.6792 14.8239 16.6706 14.8297 16.6633 14.837C16.6561 14.8443 16.6503 14.853 16.6464 14.8625C16.6425 14.8721 16.6406 14.8823 16.6406 14.8926V19.8191C16.6406 19.8294 16.6425 19.8396 16.6464 19.8492C16.6503 19.8587 16.6561 19.8674 16.6633 19.8747C16.6706 19.882 16.6792 19.8878 16.6887 19.8917C16.6982 19.8957 16.7084 19.8977 16.7187 19.8977H17.3737C17.4034 19.8977 17.4256 19.8826 17.442 19.8559C17.4581 19.8293 17.4817 19.6287 17.4817 19.6287C17.4817 19.6287 17.8676 19.9943 18.5986 19.9943C19.4564 19.9943 19.9486 19.5593 19.9486 18.0409C19.9486 16.5224 19.1626 16.324 18.6317 16.324L18.6319 16.3241ZM18.2631 19.0998C17.9392 19.0899 17.7194 18.9429 17.7194 18.9429V17.3827C17.7194 17.3827 17.9362 17.2499 18.2022 17.2259C18.5386 17.1957 18.8628 17.2974 18.8628 18.0999C18.8628 18.9463 18.7167 19.1134 18.2633 19.0996L18.2631 19.0998ZM8.31171 19.0813C8.27061 19.0813 8.1653 19.098 8.05702 19.098C7.71014 19.098 7.59249 18.9368 7.59249 18.728V17.3427H8.29874C8.30905 17.3427 8.31926 17.3407 8.32878 17.3367C8.3383 17.3328 8.34694 17.327 8.3542 17.3196C8.36147 17.3123 8.36721 17.3036 8.3711 17.2941C8.37499 17.2845 8.37695 17.2743 8.37686 17.264V16.5052C8.37691 16.4949 8.37492 16.4848 8.37101 16.4752C8.3671 16.4657 8.36135 16.4571 8.35409 16.4498C8.34683 16.4425 8.33821 16.4367 8.32871 16.4328C8.31921 16.4288 8.30902 16.4268 8.29874 16.4268H7.59249L7.5914 15.494C7.5914 15.4585 7.57327 15.4409 7.53233 15.4409H6.56983C6.53265 15.4409 6.51249 15.4574 6.51249 15.4932V16.4573C6.51249 16.4573 6.03015 16.5737 5.99765 16.583C5.98142 16.5878 5.96716 16.5976 5.95702 16.6112C5.94688 16.6247 5.9414 16.6411 5.9414 16.658V17.2638C5.94133 17.2741 5.94329 17.2843 5.94716 17.2938C5.95103 17.3033 5.95673 17.3119 5.96395 17.3192C5.97116 17.3265 5.97973 17.3323 5.98919 17.3363C5.99865 17.3403 6.00879 17.3424 6.01905 17.3424H6.51249V18.7999C6.51249 19.8827 7.27186 19.989 7.78436 19.989C8.01827 19.989 8.29843 19.914 8.34468 19.8968C8.3728 19.8863 8.3889 19.8574 8.3889 19.826L8.38952 19.1596C8.3892 19.139 8.38088 19.1192 8.3663 19.1046C8.35173 19.09 8.33204 19.0816 8.3114 19.0812L8.31171 19.0813Z" fill="#100E0F"/>
</g>
<defs>
<clipPath id="clip0_18_193">
<rect width="20" height="20" fill="white"/>
</clipPath>
</defs>
</svg>
