<svg width="24" height="24" viewBox="0 0 24 24" fill="none" xmlns="http://www.w3.org/2000/svg">
<g clip-path="url(#clip0_18_333)">
<path d="M12.0001 0.5C5.37347 0.5 0 5.77224 0 12.2761C0 17.4791 3.43838 21.8933 8.20641 23.4504C8.80613 23.5594 9.02634 23.1949 9.02634 22.8839C9.02634 22.6031 9.01509 21.6755 9.01003 20.6915C5.67159 21.4038 4.96716 19.302 4.96716 19.302C4.42125 17.9409 3.63469 17.5789 3.63469 17.5789C2.54597 16.848 3.71681 16.8631 3.71681 16.8631C4.92178 16.9461 5.55628 18.0766 5.55628 18.0766C6.62663 19.8769 8.36362 19.3564 9.04838 19.0555C9.15609 18.2945 9.46706 17.7748 9.81028 17.4808C7.14487 17.1831 4.34297 16.1733 4.34297 11.6611C4.34297 10.3754 4.81172 9.32482 5.57934 8.50014C5.45475 8.20353 5.04403 7.00587 5.69559 5.38373C5.69559 5.38373 6.70331 5.06725 8.99653 6.59086C9.95372 6.32995 10.9803 6.19912 12.0001 6.19462C13.0199 6.19912 14.0473 6.32986 15.0063 6.59086C17.2967 5.06734 18.303 5.38382 18.303 5.38382C18.9562 7.00578 18.5452 8.20362 18.4207 8.50014C19.1901 9.32482 19.6556 10.3754 19.6556 11.6611C19.6556 16.1841 16.8484 17.18 14.1762 17.4715C14.6066 17.8369 14.9902 18.5536 14.9902 19.6523C14.9902 21.2279 14.9763 22.496 14.9763 22.8839C14.9763 23.1973 15.1923 23.5645 15.8005 23.4488C20.5659 21.89 24 17.4774 24 12.2762C24 5.77224 18.6273 0.5 12.0001 0.5ZM4.49447 17.2753C4.46803 17.3338 4.37419 17.3514 4.28878 17.3112C4.20169 17.2728 4.15284 17.193 4.18097 17.1343C4.20684 17.0741 4.30087 17.0572 4.38769 17.0976C4.47487 17.1361 4.52456 17.2166 4.49447 17.2753ZM5.08472 17.7921C5.02753 17.8442 4.91559 17.82 4.83966 17.7378C4.76119 17.6557 4.74647 17.5459 4.8045 17.493C4.86356 17.441 4.97203 17.4654 5.05069 17.5474C5.12925 17.6305 5.14444 17.7395 5.08472 17.7921ZM5.48972 18.4534C5.41612 18.5036 5.29594 18.4566 5.22159 18.3519C5.14809 18.2472 5.14809 18.1216 5.22319 18.0713C5.29772 18.0209 5.41613 18.0662 5.49141 18.1702C5.56472 18.2766 5.56472 18.4022 5.48962 18.4535M6.17438 19.2194C6.10866 19.2906 5.9685 19.2715 5.86594 19.1743C5.76103 19.0794 5.73187 18.9447 5.79788 18.8735C5.86444 18.8021 6.00534 18.8222 6.10866 18.9186C6.21272 19.0133 6.24459 19.149 6.17438 19.2194ZM7.05956 19.4779C7.0305 19.5702 6.8955 19.6122 6.75966 19.573C6.62391 19.5326 6.53512 19.4246 6.5625 19.3314C6.59072 19.2385 6.72628 19.1949 6.86316 19.2368C6.99872 19.2769 7.08778 19.3842 7.05956 19.478M8.06681 19.5878C8.07019 19.6849 7.95497 19.7654 7.81228 19.7672C7.66884 19.7703 7.55269 19.6918 7.55109 19.5961C7.55109 19.4981 7.66378 19.4183 7.80731 19.4159C7.95 19.4132 8.06681 19.4912 8.06681 19.5878ZM9.05634 19.5505C9.07341 19.6453 8.97431 19.7426 8.83256 19.7686C8.69334 19.7935 8.56434 19.735 8.54663 19.6411C8.52938 19.5439 8.63034 19.4466 8.76937 19.4215C8.91131 19.3973 9.03825 19.4542 9.05634 19.5505Z" fill="#161614"/>
</g>
<defs>
<clipPath id="clip0_18_333">
<rect width="24" height="23" fill="white" transform="translate(0 0.5)"/>
</clipPath>
</defs>
</svg>
