<svg width="23" height="24" viewBox="0 0 23 24" fill="none" xmlns="http://www.w3.org/2000/svg">
<g clip-path="url(#clip0_18_331)">
<path d="M19.597 20.0974H16.1891V14.7604C16.1891 13.4878 16.1664 11.8495 14.4167 11.8495C12.6417 11.8495 12.3701 13.2361 12.3701 14.6678V20.097H8.96236V9.12209H12.2338V10.6219H12.2797C12.6071 10.0621 13.0802 9.60163 13.6486 9.28943C14.217 8.97723 14.8595 8.82504 15.5076 8.84906C18.9616 8.84906 19.5984 11.121 19.5984 14.0767L19.597 20.0974ZM5.11705 7.62197C4.02482 7.62215 3.13923 6.73683 3.13905 5.6446C3.13887 4.55237 4.0241 3.66678 5.11633 3.6666C6.20856 3.66633 7.09415 4.55165 7.09433 5.64388C7.09443 6.16839 6.88616 6.67146 6.51535 7.04242C6.14454 7.41338 5.64156 7.62185 5.11705 7.62197ZM6.82103 20.0975H3.40957V9.12209H6.82094L6.82103 20.0975ZM21.2959 0.501674H1.69715C0.770858 0.491252 0.0112288 1.23327 -9.15527e-05 2.15956V21.8401C0.0108694 22.7668 0.770408 23.5096 1.69706 23.4999H21.2959C22.2246 23.5114 22.9871 22.7686 22.9999 21.8401V2.15803C22.9867 1.22995 22.2241 0.488018 21.2959 0.500147" fill="#0A66C2"/>
</g>
<defs>
<clipPath id="clip0_18_331">
<rect width="23" height="23" fill="white" transform="translate(0 0.5)"/>
</clipPath>
</defs>
</svg>
