<svg width="20" height="20" viewBox="0 0 20 20" fill="none" xmlns="http://www.w3.org/2000/svg">
<g clip-path="url(#clip0_18_169)">
<path d="M16.8567 4.55341C16.8567 4.55341 17.3608 5.0934 18.065 5.0934C18.62 5.0934 19.0242 4.75757 19.0242 4.29757C19.0242 3.73341 18.5083 3.47341 17.8842 3.47341H17.5167L17.2967 2.97757L18.2717 1.82174C18.48 1.5734 18.6567 1.41757 18.6567 1.41757C18.6567 1.41757 18.5 1.4259 18.1842 1.4259H16.5967V0.594238H19.8483V1.20257L18.5442 2.7084C19.28 2.81257 20 3.33674 20 4.26007C20 5.16841 19.3125 6.00841 18.125 6.00841C16.9925 6.00841 16.365 5.29591 16.365 5.29591L16.8567 4.55257V4.55341ZM10.5142 5.67674L14.8092 13.3234L16.9283 9.54424L12.8733 2.3259H8.15417L6.19833 5.8084L4.24333 2.32507H0L6.175 13.3226L6.19833 13.2826L6.22333 13.3226L10.5142 5.67674ZM0.0441667 18.5067H0.671667C0.671667 18.6901 0.831667 18.8659 1.11583 18.8659C1.38 18.8659 1.55583 18.7342 1.55583 18.5576C1.55583 18.4067 1.43917 18.3384 1.23917 18.2942L0.88 18.2026C0.271667 18.0426 0.115833 17.7192 0.115833 17.3742C0.115833 16.9542 0.5325 16.5709 1.12 16.5709C1.6 16.5709 2.14333 16.8151 2.13583 17.4142H1.5C1.5 17.2309 1.33167 17.1142 1.14 17.1142C0.931667 17.1142 0.7875 17.2342 0.7875 17.4026C0.7875 17.5426 0.92 17.6226 1.07583 17.6584L1.5075 17.7751C2.11583 17.9301 2.22417 18.3101 2.22417 18.5584C2.22417 19.1059 1.67583 19.4059 1.1275 19.4059C0.595833 19.4059 0.0558333 19.0834 0.0441667 18.5067ZM2.77917 17.9867C2.77917 17.1309 3.4675 16.5701 4.2475 16.5701C4.715 16.5701 5.095 16.7784 5.34333 17.0909L4.87083 17.4659C4.79454 17.3791 4.70036 17.3099 4.59477 17.263C4.48919 17.2161 4.37469 17.1927 4.25917 17.1942C3.79167 17.1942 3.455 17.5309 3.455 17.9859C3.455 18.4384 3.79167 18.7826 4.25917 18.7826C4.37476 18.784 4.48929 18.7604 4.59488 18.7134C4.70048 18.6664 4.79462 18.597 4.87083 18.5101L5.34333 18.8859C5.2126 19.0506 5.04583 19.1831 4.85585 19.2733C4.66588 19.3634 4.45776 19.4088 4.2475 19.4059C3.4675 19.4059 2.77917 18.8426 2.77917 17.9867ZM8.57417 17.8226V19.3334H7.9025V17.8701C7.9025 17.4376 7.6425 17.2059 7.3425 17.2059C7.03417 17.2059 6.655 17.3859 6.655 17.9101V19.3376H5.9825V15.1709H6.65833V17.0459C6.79083 16.7176 7.22667 16.5659 7.49417 16.5659C8.19 16.5701 8.57417 17.0384 8.57417 17.8226ZM9.27833 17.9867C9.27833 17.1309 9.94167 16.5701 10.71 16.5701C11.4783 16.5701 12.1492 17.1309 12.1492 17.9867C12.1492 18.8426 11.4775 19.4059 10.71 19.4059C9.94167 19.4059 9.27833 18.8426 9.27833 17.9867ZM11.4733 17.9867C11.4733 17.5226 11.1258 17.1951 10.71 17.1951C10.2942 17.1951 9.95417 17.5226 9.95417 17.9867C9.95417 18.4584 10.2942 18.7826 10.71 18.7826C11.1258 18.7826 11.4733 18.4576 11.4733 17.9867ZM12.7217 17.9867C12.7217 17.1309 13.385 16.5701 14.1533 16.5701C14.9217 16.5701 15.5925 17.1309 15.5925 17.9867C15.5925 18.8426 14.9208 19.4059 14.1533 19.4059C13.3892 19.4059 12.7217 18.8426 12.7217 17.9867ZM14.9167 17.9867C14.9167 17.5226 14.5692 17.1951 14.1533 17.1951C13.7375 17.1951 13.3975 17.5226 13.3975 17.9867C13.3975 18.4584 13.7375 18.7826 14.1533 18.7826C14.5733 18.7826 14.9167 18.4576 14.9167 17.9867ZM16.3367 19.3384V15.1717H17.0083V19.3384H16.3367ZM17.7408 18.5067H18.3683C18.3683 18.6901 18.5283 18.8659 18.8125 18.8659C19.0758 18.8659 19.2525 18.7342 19.2525 18.5576C19.2525 18.4067 19.1358 18.3384 18.9358 18.2942L18.5767 18.2026C17.9683 18.0426 17.8125 17.7192 17.8125 17.3742C17.8125 16.9542 18.2283 16.5709 18.8167 16.5709C19.2958 16.5709 19.84 16.8151 19.8325 17.4142H19.1925C19.1925 17.2309 19.0242 17.1142 18.8325 17.1142C18.6242 17.1142 18.48 17.2342 18.48 17.4026C18.48 17.5426 18.6125 17.6226 18.7683 17.6584L19.2 17.7751C19.8083 17.9301 19.9167 18.3101 19.9167 18.5584C19.9167 19.1059 19.3683 19.4059 18.82 19.4059C18.2883 19.4059 17.7525 19.0834 17.7408 18.5067Z" fill="#04AA6D"/>
</g>
<defs>
<clipPath id="clip0_18_169">
<rect width="20" height="20" fill="white"/>
</clipPath>
</defs>
</svg>
