<svg width="23" height="16" viewBox="0 0 23 16" fill="none" xmlns="http://www.w3.org/2000/svg">
<g clip-path="url(#clip0_18_337)">
<path d="M22.492 2.49556C22.3601 2.0132 22.1028 1.57346 21.7457 1.22011C21.3885 0.866766 20.9441 0.612143 20.4565 0.4816C18.6717 0 11.4883 0 11.4883 0C11.4883 0 4.30461 0.0145777 2.51978 0.496178C2.03224 0.626729 1.58777 0.881365 1.23065 1.23473C0.873518 1.58809 0.616185 2.02786 0.484275 2.51022C-0.055596 5.64782 -0.265022 10.4288 0.499099 13.4409C0.631023 13.9232 0.888362 14.363 1.24549 14.7163C1.60262 15.0697 2.04707 15.3243 2.5346 15.4548C4.31944 15.9364 11.503 15.9364 11.503 15.9364C11.503 15.9364 18.6864 15.9364 20.4712 15.4548C20.9587 15.3243 21.4032 15.0697 21.7603 14.7163C22.1175 14.363 22.3748 13.9233 22.5068 13.4409C23.0762 10.2988 23.2517 5.5208 22.492 2.49556Z" fill="#FF0000"/>
<path d="M9.20187 11.3831L15.161 7.96816L9.20187 4.55322V11.3831Z" fill="white"/>
</g>
<defs>
<clipPath id="clip0_18_337">
<rect width="23" height="16" fill="white"/>
</clipPath>
</defs>
</svg>
