<svg width="257" height="234" viewBox="0 0 257 234" fill="none" xmlns="http://www.w3.org/2000/svg">
<path d="M56.4465 233.66C44.0145 233.66 33.2105 231.588 24.0345 227.444C14.8585 223.596 7.7545 215.604 2.7225 203.468C0.946502 199.028 0.0585022 194.588 0.0585022 190.148C0.0585022 182.156 2.2785 174.904 6.7185 168.392C11.1585 161.88 16.1905 156.256 21.8145 151.52C27.7345 146.784 32.9145 143.084 37.3545 140.42C41.7945 137.756 44.0145 136.276 44.0145 135.98H45.3465V136.424H45.7905C42.8305 140.568 39.4265 144.268 35.5785 147.524C31.7305 150.484 28.3265 154.036 25.3665 158.18C21.5185 163.804 17.8185 170.612 14.2665 178.604C10.7145 186.596 8.9385 193.996 8.9385 200.804C8.9385 208.796 11.1585 214.568 15.5985 218.12C20.3345 221.672 25.9585 224.04 32.4705 225.224C39.2785 226.112 45.6425 226.556 51.5625 226.556C64.5865 226.556 78.7945 224.188 94.1865 219.452C109.875 214.716 123.639 209.98 135.479 205.244C139.327 203.764 144.655 201.248 151.463 197.696C158.567 193.848 166.115 189.556 174.107 184.82C182.395 180.084 190.239 175.052 197.639 169.724C205.039 164.396 211.107 159.068 215.843 153.74C220.579 148.412 222.947 143.528 222.947 139.088C222.947 135.24 220.875 132.28 216.73 130.208C212.883 128.136 208.147 126.656 202.523 125.768C196.899 124.88 191.423 124.288 186.095 123.992C181.063 123.696 177.363 123.548 174.995 123.548C170.259 123.548 165.375 123.696 160.342 123.992C155.606 123.992 151.019 124.584 146.579 125.768C142.435 126.656 138.439 128.284 134.59 130.652C131.039 133.02 126.895 134.204 122.159 134.204C120.679 134.204 119.495 133.464 118.607 131.984C118.015 130.208 117.719 128.728 117.719 127.544C117.719 125.176 118.459 123.4 119.939 122.216C121.715 120.736 123.639 119.552 125.711 118.664C130.743 116.888 135.775 115.556 140.807 114.668C146.135 113.484 151.167 112.004 155.903 110.228C171.591 104.604 187.279 97.3522 202.967 88.4722C218.655 79.5922 230.939 67.9002 239.819 53.3962C242.779 48.3642 244.259 43.3322 244.259 38.3002C244.259 31.7882 241.299 26.7562 235.379 23.2042C229.459 19.3562 222.355 16.5442 214.067 14.7682C205.779 12.6962 197.491 11.3642 189.203 10.7722C181.211 10.1802 174.995 9.88422 170.555 9.88422C153.091 9.88422 135.775 11.0682 118.607 13.4362C101.439 15.8042 84.4185 19.3562 67.5465 24.0922C64.8825 24.6842 60.5905 26.0162 54.6705 28.0882C49.0465 29.8642 43.7185 32.0842 38.6865 34.7482C33.6545 37.1162 31.1385 40.0762 31.1385 43.6282C31.1385 45.1082 31.5825 46.5882 32.4705 48.0682C33.3585 49.2522 34.5425 49.8442 36.0225 49.8442C36.0225 51.0282 35.5785 51.6202 34.6905 51.6202V52.0642C30.8425 51.4722 27.1425 50.5842 23.5905 49.4002C20.3345 47.9202 18.7065 44.8122 18.7065 40.0762C18.7065 34.7482 20.4825 30.6042 24.0345 27.6442C27.8825 24.3882 32.3225 21.8722 37.3545 20.0962C42.3865 18.0242 46.8265 16.3962 50.6745 15.2122C53.9305 14.0282 57.1865 12.8442 60.4425 11.6602C63.6985 10.4762 66.9545 9.88422 70.2105 9.88422C72.5785 8.70021 74.7985 8.10822 76.8705 8.10822C79.2385 7.81222 81.7545 7.51622 84.4185 7.22021C85.8985 6.62822 87.3785 6.18422 88.8585 5.88821C90.3385 5.59222 91.6705 5.29623 92.8545 5.00023C100.551 3.52023 108.395 2.78023 116.387 2.78023C124.675 2.48421 132.667 2.04021 140.363 1.44822C143.027 1.15222 145.691 0.856217 148.355 0.560204C151.019 0.264207 153.535 0.116211 155.903 0.116211C165.967 0.116211 177.215 0.856214 189.647 2.33621C202.079 3.52021 213.771 6.33222 224.723 10.7722C235.675 15.2122 244.111 22.3162 250.031 32.0842C251.511 34.7482 252.843 37.5602 254.027 40.5202C255.507 43.1842 256.247 46.1442 256.247 49.4002C256.247 57.6882 252.547 65.3842 245.147 72.4882C238.043 79.2962 229.163 85.5122 218.507 91.1362C207.851 96.4642 197.195 101.052 186.539 104.9C176.179 108.748 167.595 111.708 160.787 113.78V114.668H161.23V115.112C163.302 115.112 165.226 115.112 167.003 115.112C169.075 114.816 171.147 114.668 173.219 114.668C179.731 114.668 186.687 115.26 194.087 116.444C201.783 117.628 208.887 119.996 215.399 123.548C222.207 126.804 227.238 131.688 230.494 138.2C231.975 141.16 232.715 144.12 232.715 147.08C232.715 150.928 231.679 154.924 229.607 159.068C224.575 167.356 216.878 175.2 206.519 182.6C196.159 190 184.319 196.808 170.999 203.024C157.678 209.24 143.915 214.716 129.707 219.452C115.795 223.892 102.327 227.296 89.3025 229.664C76.5745 232.328 65.6225 233.66 56.4465 233.66ZM67.9905 203.912C63.2545 203.912 59.5545 201.396 56.8905 196.364C54.2265 191.332 52.8945 186.744 52.8945 182.6C52.8945 174.608 54.6705 166.32 58.2225 157.736C62.0705 149.152 66.5105 140.864 71.5425 132.872C76.8705 124.88 81.9025 117.924 86.6385 112.004V110.228C87.5265 109.34 88.5625 108.304 89.7465 107.12C90.9305 105.64 92.1145 104.9 93.2985 104.9C93.8905 100.756 95.9625 97.3522 99.5145 94.6882C103.067 91.7282 104.991 88.7682 105.287 85.8082C107.063 84.3282 109.726 81.5162 113.278 77.3722C117.126 73.2282 121.123 68.6402 125.267 63.6082C129.411 58.5762 133.11 54.2842 136.367 50.7322C139.623 46.8842 141.695 44.9602 142.583 44.9602C142.287 40.2242 144.359 35.7842 148.799 31.6402C153.535 27.2002 157.531 23.6482 160.787 20.9842C163.451 21.2802 166.411 22.0202 169.667 23.2042C173.219 24.3882 174.995 26.7562 174.995 30.3082C174.995 31.1962 174.699 32.2322 174.107 33.4162C173.515 35.7842 171.295 38.7442 167.447 42.2962C163.599 45.8482 159.603 49.4002 155.459 52.9522C151.611 56.2082 148.651 58.8722 146.579 60.9442C140.067 67.4562 132.075 75.8922 122.603 86.2522C113.131 96.3162 103.659 107.416 94.1865 119.552C85.0105 131.392 77.3145 143.232 71.0985 155.072C64.8825 166.616 61.7745 177.272 61.7745 187.04C61.7745 190.888 62.3665 194.144 63.5505 196.808C64.7345 199.472 67.5465 200.804 71.9865 200.804V203.024C70.2105 203.616 68.8785 203.912 67.9905 203.912Z" fill="#2C3E50"/>
</svg>
